<svg width="17" height="17" viewBox="0 0 17 17" fill="none" xmlns="http://www.w3.org/2000/svg">
<g clip-path="url(#clip0_2_1581)">
<path d="M8.69525 7.98333C9.76192 7.98333 10.6686 7.60111 11.4153 6.83667C12.1619 6.07222 12.5353 5.15667 12.5353 4.09C12.5353 3.02333 12.1619 2.11667 11.4153 1.37C10.6686 0.623333 9.76192 0.25 8.69525 0.25C7.62859 0.25 6.72192 0.623333 5.97525 1.37C5.22859 2.11667 4.85525 3.02333 4.85525 4.09C4.85525 5.15667 5.22859 6.07222 5.97525 6.83667C6.72192 7.60111 7.62859 7.98333 8.69525 7.98333ZM6.61525 2.06333C7.18414 1.49444 7.86859 1.21 8.66859 1.21C9.46859 1.21 10.1619 1.49444 10.7486 2.06333C11.3353 2.63222 11.6286 3.31667 11.6286 4.11667C11.6286 4.91667 11.3441 5.60111 10.7753 6.17C10.2064 6.73889 9.51303 7.02333 8.69525 7.02333C7.87748 7.02333 7.18414 6.73889 6.61525 6.17C6.04637 5.60111 5.76192 4.91667 5.76192 4.11667C5.76192 3.31667 6.04637 2.63222 6.61525 2.06333ZM15.4153 12.57C15.4153 12.25 15.3797 11.9033 15.3086 11.53C15.2375 11.1567 15.1486 10.8189 15.0419 10.5167C14.9353 10.2144 14.793 9.90333 14.6153 9.58333C14.4375 9.26333 14.233 8.98778 14.0019 8.75667C13.7708 8.52556 13.4775 8.33889 13.1219 8.19667C12.7664 8.05444 12.3753 7.98333 11.9486 7.98333C11.8064 7.98333 11.593 8.07222 11.3086 8.25L10.6686 8.67667C10.4553 8.81889 10.1708 8.94333 9.81525 9.05C9.4597 9.15667 9.11303 9.21 8.77525 9.21C8.43748 9.21 8.09081 9.15667 7.73525 9.05C7.3797 8.94333 7.11303 8.81889 6.93525 8.67667L6.24192 8.25C5.99303 8.07222 5.79748 7.98333 5.65525 7.98333C5.22859 7.98333 4.83748 8.05444 4.48192 8.19667C4.12637 8.33889 3.82414 8.52556 3.57525 8.75667C3.32637 8.98778 3.11303 9.26333 2.93525 9.58333C2.75748 9.90333 2.61525 10.2233 2.50859 10.5433C2.40192 10.8633 2.32192 11.2011 2.26859 11.5567C2.21525 11.9122 2.1797 12.2411 2.16192 12.5433C2.14414 12.8456 2.13525 13.1567 2.13525 13.4767C2.13525 14.33 2.39303 15.0056 2.90859 15.5033C3.42414 16.0011 4.10859 16.25 4.96192 16.25H12.6419C13.4597 16.25 14.1353 16.0011 14.6686 15.5033C15.2019 15.0056 15.4686 14.33 15.4686 13.4767C15.4686 13.1567 15.4508 12.8544 15.4153 12.57ZM14.0286 14.81C13.673 15.13 13.2108 15.29 12.6419 15.29H4.96192C4.35748 15.29 3.88637 15.13 3.54859 14.81C3.21081 14.49 3.04192 14.0456 3.04192 13.4767L3.09525 12.6233C3.09525 12.3389 3.13081 12.0367 3.20192 11.7167C3.27303 11.3967 3.34414 11.1033 3.41525 10.8367C3.48637 10.57 3.59303 10.3122 3.73525 10.0633C3.87748 9.81444 4.03748 9.61 4.21525 9.45C4.39303 9.29 4.59748 9.16556 4.82859 9.07667C5.0597 8.98778 5.2997 8.94333 5.54859 8.94333L6.40192 9.47667C6.68637 9.65444 7.04192 9.80556 7.46859 9.93C7.89525 10.0544 8.33081 10.1167 8.77525 10.1167C9.2197 10.1167 9.66414 10.0544 10.1086 9.93C10.553 9.80556 10.8997 9.65444 11.1486 9.47667L12.0019 8.94333C12.2864 8.94333 12.5441 8.98778 12.7753 9.07667C13.0064 9.16556 13.2019 9.29 13.3619 9.45C13.5219 9.61 13.673 9.81444 13.8153 10.0633C13.9575 10.3122 14.073 10.57 14.1619 10.8367C14.2508 11.1033 14.3219 11.3967 14.3753 11.7167C14.4286 12.0367 14.473 12.3389 14.5086 12.6233V13.4767C14.5086 14.0456 14.3486 14.49 14.0286 14.81Z" fill="#1F4B43"/>
</g>
<defs>
<clipPath id="clip0_2_1581">
<rect width="15.95" height="16" fill="white" transform="matrix(1 0 0 -1 0.800293 16.25)"/>
</clipPath>
</defs>
</svg>
