<svg width="21" height="21" viewBox="0 0 21 21" fill="none" xmlns="http://www.w3.org/2000/svg">
<path d="M20.78 19.5867L15.8466 14.72C16.4689 13.9645 16.9578 13.1312 17.3133 12.22C17.6689 11.3089 17.8466 10.3423 17.8466 9.32004C17.8466 7.80893 17.4689 6.40893 16.7133 5.12004C15.9578 3.83115 14.9355 2.80893 13.6466 2.05338C12.3578 1.29782 10.9466 0.920042 9.41331 0.920042C7.87998 0.920042 6.46887 1.29782 5.17998 2.05338C3.89109 2.80893 2.86887 3.83115 2.11331 5.12004C1.35776 6.40893 0.97998 7.82004 0.97998 9.35338C0.97998 10.8867 1.35776 12.2978 2.11331 13.5867C2.86887 14.8756 3.89109 15.8978 5.17998 16.6534C6.46887 17.4089 7.86887 17.7867 9.37998 17.7867C10.4022 17.7867 11.3689 17.6089 12.28 17.2534C13.1911 16.8978 14.0244 16.4089 14.78 15.7867L19.6466 20.72C19.8244 20.8534 20.0133 20.92 20.2133 20.92C20.4133 20.92 20.5911 20.8423 20.7466 20.6867C20.9022 20.5312 20.98 20.3534 20.98 20.1534C20.98 19.9534 20.9133 19.7645 20.78 19.5867ZM2.51331 9.32004C2.51331 8.0756 2.82442 6.93115 3.44665 5.88671C4.06887 4.84227 4.9022 4.00893 5.94665 3.38671C6.99109 2.76449 8.13554 2.45338 9.37998 2.45338C10.6244 2.45338 11.7689 2.76449 12.8133 3.38671C13.8578 4.00893 14.6911 4.84227 15.3133 5.88671C15.9355 6.93115 16.2466 8.0756 16.2466 9.32004C16.2466 10.5645 15.9355 11.7089 15.3133 12.7534C14.6911 13.7978 13.8578 14.6312 12.8133 15.2534C11.7689 15.8756 10.6244 16.1867 9.37998 16.1867C8.13554 16.1867 6.99109 15.8756 5.94665 15.2534C4.9022 14.6312 4.06887 13.7978 3.44665 12.7534C2.82442 11.7089 2.51331 10.5645 2.51331 9.32004Z" fill="#1F4B43"/>
</svg>
