<svg width="62" height="62" viewBox="0 0 62 62" fill="none" xmlns="http://www.w3.org/2000/svg">
<g clip-path="url(#clip0_2_1984)">
<path d="M31 61.1001C47.5685 61.1001 61 47.6686 61 31.1001C61 14.5316 47.5685 1.1001 31 1.1001C14.4315 1.1001 1 14.5316 1 31.1001C1 47.6686 14.4315 61.1001 31 61.1001Z" fill="#E7C873"/>
<path fill-rule="evenodd" clip-rule="evenodd" d="M44.4202 20.2214C44.5102 19.6289 44.2577 19.0351 43.769 18.6864C43.2802 18.3389 42.6365 18.2951 42.1052 18.5739C37.854 20.8064 22.9827 28.6139 18.4152 31.0114C17.8515 31.3064 17.519 31.9089 17.5677 32.5426C17.6165 33.1764 18.0365 33.7214 18.639 33.9276C20.4177 34.5364 22.5915 35.2826 26.0002 36.4514L39.7502 23.6001L28.6227 37.3501C32.2577 38.5964 37.9415 40.5451 39.3677 41.0339C39.814 41.1876 40.3065 41.1339 40.7102 40.8901C41.114 40.6451 41.3877 40.2339 41.459 39.7664L44.4202 20.2214Z" fill="#1F4B43"/>
<path fill-rule="evenodd" clip-rule="evenodd" d="M27.04 38.1289V42.2164C27.04 42.8439 27.4088 43.4127 27.98 43.6689C28.5525 43.9264 29.2213 43.8239 29.69 43.4064L33.2375 40.2539L27.04 38.1289Z" fill="#1F4B43"/>
</g>
<defs>
<clipPath id="clip0_2_1984">
<rect width="61" height="61" fill="white" transform="translate(0.5 0.200195)"/>
</clipPath>
</defs>
</svg>
